<svg version="1.1" width="82.1500015258789" height="26.20803451538086" viewBox="-0.5 -0.5080343186855316 82.1500015258789 26.20803451538086" xmlns="http://www.w3.org/2000/svg" xmlns:xlink="http://www.w3.org/1999/xlink">
  <defs>
    <linearGradient id="grad_1" y2="1" x2="0">
      <stop offset="0" stop-color="#7F7F7F" stop-opacity="1"/>
      <stop offset="1" stop-color="#FFFFFF" stop-opacity="1"/>
    </linearGradient>
  <linearGradient id="grad_1-,0,0,1,40.05,-3.8" y2="25.2" x2="0" x1="0" y1="-0.008" gradientUnits="userSpaceOnUse">
      <stop offset="0" stop-color="#7F7F7F" stop-opacity="1"/>
      <stop offset="1" stop-color="#FFFFFF" stop-opacity="1"/>
    </linearGradient></defs>
  <!-- Exported by Scratch - http://scratch.mit.edu/ -->
  <g id="ID0.0976456981152296">
    <path id="ID0.5620541661046445" fill="url(#grad_1-,0,0,1,40.05,-3.8)" stroke="none" d="M 76.2 9.15 C 79.5 11.55 81.15 13.717 81.15 15.65 C 81.15 19.117 76.667 21.667 67.7 23.3 C 60.733 24.567 51.4 25.2 39.7 25.2 L 25.35 24.5 L 12.6 22.55 C 8.667 21.583 5.633 20.45 3.5 19.15 C 1.167 17.65 0 16 0 14.2 C 0 12.2 1.267 10.4 3.8 8.8 C 6.3 7.167 9.233 5.667 12.6 4.3 C 15.967 2.933 20.067 1.933 24.9 1.3 L 40.7 0.05 C 46.433 -0.15 51.433 0.167 55.7 1 C 59.933 1.8 63.583 2.75 66.65 3.85 C 69.717 4.95 72.9 6.717 76.2 9.15 " stroke-width="1"/>
  </g>
</svg>