<svg version="1.1" width="100.50164031982422" height="50.54999923706055" viewBox="-0.5016367012867704 -0.5 100.50164031982422 50.54999923706055" xmlns="http://www.w3.org/2000/svg" xmlns:xlink="http://www.w3.org/1999/xlink">
  <defs>
    <linearGradient id="grad_1" y2="1" x2="0">
      <stop offset="0" stop-color="#7F7F7F" stop-opacity="1"/>
      <stop offset="1" stop-color="#FFFFFF" stop-opacity="1"/>
    </linearGradient>
  <linearGradient id="grad_1-,0,0,1,49.6,12.7" y2="49.55" x2="2.8994" x1="2.8994" y1="0" gradientUnits="userSpaceOnUse">
      <stop offset="0" stop-color="#7F7F7F" stop-opacity="1"/>
      <stop offset="1" stop-color="#FFFFFF" stop-opacity="1"/>
    </linearGradient></defs>
  <!-- Exported by Scratch - http://scratch.mit.edu/ -->
  <g id="ID0.3207854349166155">
    <path id="ID0.6457487531006336" fill="url(#grad_1-,0,0,1,49.6,12.7)" stroke="none" d="M 67.55 2.8 C 73.05 4.5 78.1 6.9 82.7 10 C 87.267 13.1 90.85 16.433 93.45 20 C 96.15 23.767 97.5 27.417 97.5 30.95 C 97.5 37.617 92.567 42.517 82.7 45.65 C 74.633 48.25 63.817 49.55 50.25 49.55 L 32.9 48.55 C 27.033 47.75 21.967 46.583 17.7 45.05 C 13 43.417 9.417 41.383 6.95 38.95 C 4.217 36.283 2.867 33.217 2.9 29.75 C 2.867 26.217 4.217 22.633 6.95 19 C 9.517 15.533 13.1 12.35 17.7 9.45 C 22.3 6.517 27.367 4.217 32.9 2.55 C 38.733 0.85 44.517 0 50.25 0 C 55.983 0 61.75 0.933 67.55 2.8 " stroke-width="1"/>
    <path id="ID0.02498689852654934" fill="#ffffff" stroke="none" d="M 96.2 22.7 C 96.633 22.7 97 22.817 97.3 23.05 L 97.85 23.9 L 97.3 24.7 L 96.2 25.1 C 95.767 25.067 95.367 24.933 95 24.7 C 94.7 24.467 94.55 24.2 94.55 23.9 C 94.55 23.6 94.7 23.317 95 23.05 C 95.367 22.817 95.767 22.7 96.2 22.7 M 5.15 22.35 C 5.517 22.117 5.917 22 6.35 22 C 6.783 22 7.15 22.117 7.45 22.35 C 7.783 22.617 7.967 22.9 8 23.2 C 7.967 23.5 7.783 23.767 7.45 24 C 7.15 24.233 6.783 24.35 6.35 24.35 L 5.15 24 C 4.85 23.767 4.7 23.5 4.7 23.2 L 5.15 22.35 " stroke-width="1"/>
    <path id="ID0.15360442968085408" fill="#252525" stroke="none" d="M 98.05 22.45 C 98.983 23.217 99.467 24.167 99.5 25.3 C 99.467 26.4 98.983 27.35 98.05 28.15 C 97.117 28.917 95.983 29.317 94.65 29.35 C 93.317 29.317 92.183 28.917 91.25 28.15 C 90.283 27.35 89.817 26.4 89.85 25.3 C 89.817 24.167 90.283 23.217 91.25 22.45 C 92.183 21.65 93.317 21.25 94.65 21.25 C 95.983 21.25 97.117 21.65 98.05 22.45 M 96.2 22.7 C 95.767 22.7 95.367 22.817 95 23.05 C 94.7 23.317 94.55 23.6 94.55 23.9 C 94.55 24.2 94.7 24.467 95 24.7 C 95.367 24.933 95.767 25.067 96.2 25.1 L 97.3 24.7 L 97.85 23.9 L 97.3 23.05 C 97 22.817 96.633 22.7 96.2 22.7 M 1.4 21.75 C 2.333 20.95 3.467 20.55 4.8 20.55 C 6.133 20.55 7.267 20.95 8.2 21.75 C 9.133 22.517 9.617 23.467 9.65 24.6 C 9.617 25.667 9.133 26.6 8.2 27.4 C 7.267 28.2 6.133 28.617 4.8 28.65 C 3.467 28.617 2.333 28.2 1.4 27.4 C 0.433 26.6 -0.033 25.667 0 24.6 C -0.033 23.467 0.433 22.517 1.4 21.75 M 5.15 22.35 L 4.7 23.2 C 4.7 23.5 4.85 23.767 5.15 24 L 6.35 24.35 C 6.783 24.35 7.15 24.233 7.45 24 C 7.783 23.767 7.967 23.5 8 23.2 C 7.967 22.9 7.783 22.617 7.45 22.35 C 7.15 22.117 6.783 22 6.35 22 C 5.917 22 5.517 22.117 5.15 22.35 " stroke-width="1"/>
  </g>
</svg>