<svg version="1.1" width="111.25" height="76.2005386352539" viewBox="-0.5000009536743164 -0.5005387519486248 111.25 76.2005386352539" xmlns="http://www.w3.org/2000/svg" xmlns:xlink="http://www.w3.org/1999/xlink">
  <defs>
    <linearGradient id="grad_1" y2="1" x2="0">
      <stop offset="0" stop-color="#7F7F7F" stop-opacity="1"/>
      <stop offset="1" stop-color="#FFFFFF" stop-opacity="1"/>
    </linearGradient>
  <linearGradient id="grad_1-,0,0,1,54.75,30.3" y2="75" x2="0" x1="0" y1="-0.0005" gradientUnits="userSpaceOnUse">
      <stop offset="0" stop-color="#7F7F7F" stop-opacity="1"/>
      <stop offset="1" stop-color="#FFFFFF" stop-opacity="1"/>
    </linearGradient></defs>
  <!-- Exported by Scratch - http://scratch.mit.edu/ -->
  <g id="ID0.3218501606024802">
    <path id="ID0.9307730169966817" fill="url(#grad_1-,0,0,1,54.75,30.3)" stroke="none" d="M 72.85 4.45 C 79.017 7.25 85.033 10.95 90.9 15.55 C 96.633 20.05 101.233 24.733 104.7 29.6 C 108.4 34.667 110.25 39.133 110.25 43 C 110.25 47.633 108.65 51.983 105.45 56.05 C 102.483 59.917 98.3 63.283 92.9 66.15 C 87.633 68.95 81.7 71.133 75.1 72.7 C 68.467 74.233 61.717 75 54.85 75 C 47.883 75 41.117 74.25 34.55 72.75 C 27.983 71.25 22.15 69.167 17.05 66.5 C 11.75 63.6 7.633 60.283 4.7 56.55 C 1.567 52.517 0 48.183 0 43.55 C 0 39.817 1.683 35.417 5.05 30.35 C 8.283 25.383 12.583 20.633 17.95 16.1 C 23.55 11.3 29.45 7.5 35.65 4.7 C 42.417 1.533 48.817 -0.033 54.85 0 C 60.183 -0.033 66.183 1.45 72.85 4.45 " stroke-width="1"/>
    <path id="ID0.7125763366930187" fill="#333333" stroke="none" d="M 73.85 69.8 L 25.35 69.7 L 32.8 66.25 L 78.55 66.25 L 85.35 69.7 L 73.85 69.8 " stroke-width="1"/>
    <path id="ID0.15120752388611436" fill="#999999" stroke="none" d="M 73.85 69.8 L 85.05 69.95 L 85.05 70.45 L 81.95 74.45 L 80.1 71.6 L 78 74 L 75.6 71.6 L 73.5 74.45 L 71.4 71.6 L 69.3 74.45 L 66.4 71.4 L 64.3 75.2 L 61.7 71.4 L 59.85 74.45 L 57.45 71.15 L 55.05 74.25 L 52.75 71.15 L 50.35 74.45 L 48.25 71.15 L 45.6 74.7 L 43.5 71.15 L 41.4 74 L 38.5 71.15 L 36.65 74.25 L 34.3 70.9 L 32.2 74.45 L 29.85 70.9 L 27.7 73.75 L 25.05 69.7 L 25.35 69.7 L 73.85 69.8 " stroke-width="1"/>
  </g>
</svg>