<svg version="1.1" width="135.75" height="104.19999694824219" viewBox="-0.5 -0.5 135.75 104.19999694824219" xmlns="http://www.w3.org/2000/svg" xmlns:xlink="http://www.w3.org/1999/xlink">
  <defs>
    <linearGradient id="grad_1" y2="1" x2="0">
      <stop offset="0" stop-color="#7F7F7F" stop-opacity="1"/>
      <stop offset="1" stop-color="#FFFFFF" stop-opacity="1"/>
    </linearGradient>
  <linearGradient id="grad_1-,0,0,1,66.6,46.2" y2="103.2" x2="3.0992" x1="3.0992" y1="0" gradientUnits="userSpaceOnUse">
      <stop offset="0" stop-color="#7F7F7F" stop-opacity="1"/>
      <stop offset="1" stop-color="#FFFFFF" stop-opacity="1"/>
    </linearGradient></defs>
  <!-- Exported by Scratch - http://scratch.mit.edu/ -->
  <g id="ID0.783809442538768">
    <path id="ID0.04117953358218074" fill="url(#grad_1-,0,0,1,66.6,46.2)" stroke="none" d="M 86.1 4.9 C 93.367 8.067 100.4 12.25 107.2 17.45 C 114.367 23.017 120.083 28.833 124.35 34.9 C 129.083 41.667 131.45 48.15 131.45 54.35 C 131.45 68.117 127.533 79.067 119.7 87.2 C 109.333 97.867 92.4 103.2 68.9 103.2 C 56.333 103.2 45.417 101.6 36.15 98.4 C 32.383 97.067 28.933 95.483 25.8 93.65 C 22.133 91.517 18.883 89.05 16.05 86.25 C 11.483 81.783 8.1 76.583 5.9 70.65 C 4 65.55 3.067 60.333 3.1 55 C 3.067 49 5.317 42.583 9.85 35.75 C 13.817 29.75 19.133 24.017 25.8 18.55 L 26.4 18.05 C 33.067 12.617 40.05 8.283 47.35 5.05 C 54.817 1.683 61.45 0 67.25 0 C 72.417 0 78.7 1.633 86.1 4.9 " stroke-width="1"/>
    <path id="ID0.9122586697340012" fill="#7a7a7a" stroke="none" d="M 121.7 34.3 L 122.25 34.25 C 125.717 34.25 128.667 36.4 131.1 40.7 C 133.533 45 134.75 50.183 134.75 56.25 C 134.75 62.317 133.533 67.5 131.1 71.8 C 128.667 76.1 125.717 78.25 122.25 78.25 L 120.65 78.1 C 122.95 75.867 124.883 73.467 126.45 70.9 C 129.25 66.433 130.65 61.783 130.65 56.95 C 130.65 51.65 128.717 45.717 124.85 39.15 L 121.7 34.3 M 13.1 34.3 L 9.9 39.15 C 6.033 45.717 4.1 51.65 4.1 56.95 C 4.1 61.783 5.517 66.433 8.35 70.9 C 9.883 73.467 11.8 75.867 14.1 78.1 L 12.5 78.25 C 9.033 78.25 6.083 76.1 3.65 71.8 C 1.217 67.5 0 62.317 0 56.25 C 0 50.183 1.217 45 3.65 40.7 C 6.083 36.4 9.033 34.25 12.5 34.25 L 13.1 34.3 " stroke-width="1"/>
  </g>
</svg>