<svg version="1.1" width="152.1999969482422" height="183.7504425048828" viewBox="-0.5 -0.5004463195800781 152.1999969482422 183.7504425048828" xmlns="http://www.w3.org/2000/svg" xmlns:xlink="http://www.w3.org/1999/xlink">
  <defs>
    <linearGradient id="grad_1" x1="-819.2" x2="819.2" gradientUnits="userSpaceOnUse">
      <stop offset="0.0" stop-color="#ffffff"/>
      <stop offset="0.13725490196078433" stop-color="#ffffff"/>
      <stop offset="0.47843137254901963" stop-color="#b1b1b1"/>
      <stop offset="0.5725490196078431" stop-color="#dadada"/>
      <stop offset="1.0" stop-color="#222222"/>
    </linearGradient>
    <linearGradient id="grad_2" x1="-819.2" x2="819.2" gradientUnits="userSpaceOnUse">
      <stop offset="0.0" stop-color="#ffffff"/>
      <stop offset="0.13725490196078433" stop-color="#ffffff"/>
      <stop offset="0.47843137254901963" stop-color="#b1b1b1"/>
      <stop offset="0.5725490196078431" stop-color="#dadada"/>
      <stop offset="1.0" stop-color="#222222"/>
    </linearGradient>
    <linearGradient id="grad_3" y2="1" x2="0">
      <stop offset="0" stop-color="#7F7F7F" stop-opacity="1"/>
      <stop offset="1" stop-color="#FFFFFF" stop-opacity="1"/>
    </linearGradient>
  <linearGradient id="grad_1-,0,0,1,74.1,106.9" x1="-745.1" x2="893.3" gradientUnits="userSpaceOnUse" y1="106.9" y2="106.9">
      <stop offset="0.0" stop-color="#ffffff"/>
      <stop offset="0.13725490196078433" stop-color="#ffffff"/>
      <stop offset="0.47843137254901963" stop-color="#b1b1b1"/>
      <stop offset="0.5725490196078431" stop-color="#dadada"/>
      <stop offset="1.0" stop-color="#222222"/>
    </linearGradient><linearGradient id="grad_2-,0,0,1,74.1,106.9" x1="-745.1" x2="893.3" gradientUnits="userSpaceOnUse" y1="106.9" y2="106.9">
      <stop offset="0.0" stop-color="#ffffff"/>
      <stop offset="0.13725490196078433" stop-color="#ffffff"/>
      <stop offset="0.47843137254901963" stop-color="#b1b1b1"/>
      <stop offset="0.5725490196078431" stop-color="#dadada"/>
      <stop offset="1.0" stop-color="#222222"/>
    </linearGradient><linearGradient id="grad_3-,0,0,1,74.1,106.9" y2="182.75" x2="0" x1="0" y1="43.1497" gradientUnits="userSpaceOnUse">
      <stop offset="0" stop-color="#7F7F7F" stop-opacity="1"/>
      <stop offset="1" stop-color="#FFFFFF" stop-opacity="1"/>
    </linearGradient></defs>
  <!-- Exported by Scratch - http://scratch.mit.edu/ -->
  <g id="ID0.14711523847654462">
    <path id="ID0.8733871816657484" fill="url(#grad_1-,0,0,1,74.1,106.9)" stroke="none" d="M 85.3 75.65 L 85.25 83.8 C 85.017 103.733 83.85 120.75 81.75 134.85 C 79.683 148.917 77.333 155.933 74.7 155.9 C 72.067 155.867 69.867 148.767 68.1 134.6 C 67.267 127.6 66.7 119.9 66.4 111.5 C 66.833 118.867 67.4 125.7 68.1 132 C 69.867 147.133 72.067 154.733 74.7 154.8 C 77.333 154.833 79.683 147.3 81.75 132.2 C 83.85 117.1 85.017 98.883 85.25 77.55 L 85.3 75.65 " stroke-width="1"/>
    <path id="ID0.5435988525860012" fill="url(#grad_2-,0,0,1,74.1,106.9)" stroke="none" d="M 66.4 111.5 L 65.9 85.15 L 65.9 77.25 C 66.133 55.883 67.267 37.65 69.3 22.55 C 71.433 7.45 73.817 -0.067 76.45 0 C 79.083 0.067 81.25 7.667 82.95 22.8 C 84.283 34.2 85.017 47.383 85.15 62.35 L 85.3 75.65 L 85.25 77.55 C 85.017 98.883 83.85 117.1 81.75 132.2 C 79.683 147.3 77.333 154.833 74.7 154.8 C 72.067 154.733 69.867 147.133 68.1 132 C 67.4 125.7 66.833 118.867 66.4 111.5 " stroke-width="1"/>
    <path id="ID0.8578972634859383" fill="url(#grad_3-,0,0,1,74.1,106.9)" stroke="none" d="M 95.55 49.75 C 104.183 54.217 112.617 59.95 120.85 66.95 C 129.817 74.65 136.917 82.65 142.15 90.95 C 148.15 100.317 151.167 109.217 151.2 117.65 C 151.167 123.983 150.033 130.55 147.8 137.35 C 145.1 145.283 141.133 152.4 135.9 158.7 C 129.7 166 122.067 171.7 113 175.8 C 102.433 180.4 90.233 182.717 76.4 182.75 C 62 182.75 49.383 180.267 38.55 175.3 L 33.3 172.65 C 26.3 168.683 20.25 163.617 15.15 157.45 C 9.95 151.083 6 143.917 3.3 135.95 C 1.1 129.417 0 123.317 0 117.65 C 0 110.25 2.783 101.983 8.35 92.85 C 13.417 84.617 20.167 76.6 28.6 68.8 L 33.3 64.55 C 39.8 58.883 46.433 54.167 53.2 50.4 C 61.767 45.533 68.95 43.117 74.75 43.15 C 79.983 43.15 86.917 45.35 95.55 49.75 " stroke-width="1"/>
  </g>
</svg>