<svg version="1.1" width="145.5500030517578" height="218.00033569335938" viewBox="-0.5 -0.5003376007080078 145.5500030517578 218.00033569335938" xmlns="http://www.w3.org/2000/svg" xmlns:xlink="http://www.w3.org/1999/xlink">
  <defs>
    <linearGradient id="grad_1" x1="-819.2" x2="819.2" gradientUnits="userSpaceOnUse">
      <stop offset="0.0" stop-color="#ffffff"/>
      <stop offset="0.13725490196078433" stop-color="#ffffff"/>
      <stop offset="0.47843137254901963" stop-color="#b1b1b1"/>
      <stop offset="0.5725490196078431" stop-color="#dadada"/>
      <stop offset="1.0" stop-color="#222222"/>
    </linearGradient>
    <linearGradient id="grad_2" x1="-819.2" x2="819.2" gradientUnits="userSpaceOnUse">
      <stop offset="0.0" stop-color="#ffffff"/>
      <stop offset="0.13725490196078433" stop-color="#ffffff"/>
      <stop offset="0.47843137254901963" stop-color="#b1b1b1"/>
      <stop offset="0.5725490196078431" stop-color="#dadada"/>
      <stop offset="1.0" stop-color="#222222"/>
    </linearGradient>
    <linearGradient id="grad_3" y2="1" x2="0">
      <stop offset="0" stop-color="#7F7F7F" stop-opacity="1"/>
      <stop offset="1" stop-color="#FFFFFF" stop-opacity="1"/>
    </linearGradient>
  <linearGradient id="grad_1-,0,0,1,70.7,141.95" x1="-748.5" x2="889.9" gradientUnits="userSpaceOnUse" y1="141.95" y2="141.95">
      <stop offset="0.0" stop-color="#ffffff"/>
      <stop offset="0.13725490196078433" stop-color="#ffffff"/>
      <stop offset="0.47843137254901963" stop-color="#b1b1b1"/>
      <stop offset="0.5725490196078431" stop-color="#dadada"/>
      <stop offset="1.0" stop-color="#222222"/>
    </linearGradient><linearGradient id="grad_2-,0,0,1,70.7,141.95" x1="-748.5" x2="889.9" gradientUnits="userSpaceOnUse" y1="141.95" y2="141.95">
      <stop offset="0.0" stop-color="#ffffff"/>
      <stop offset="0.13725490196078433" stop-color="#ffffff"/>
      <stop offset="0.47843137254901963" stop-color="#b1b1b1"/>
      <stop offset="0.5725490196078431" stop-color="#dadada"/>
      <stop offset="1.0" stop-color="#222222"/>
    </linearGradient><linearGradient id="grad_3-,0,0,1,70.7,141.95" y2="217" x2="0" x1="0" y1="82.1486" gradientUnits="userSpaceOnUse">
      <stop offset="0" stop-color="#7F7F7F" stop-opacity="1"/>
      <stop offset="1" stop-color="#FFFFFF" stop-opacity="1"/>
    </linearGradient></defs>
  <!-- Exported by Scratch - http://scratch.mit.edu/ -->
  <g id="ID0.7035601981915534">
    <path id="ID0.3568178890272975" fill="url(#grad_1-,0,0,1,70.7,141.95)" stroke="none" d="M 82.1 99.6 L 82.05 107.9 C 81.817 133.833 80.617 155.967 78.45 174.3 C 76.35 192.633 73.933 201.783 71.2 201.75 C 68.433 201.683 66.117 192.467 64.25 174.1 L 63.15 158.75 L 64.25 171.75 C 66.117 191.45 68.433 201.333 71.2 201.4 C 73.933 201.433 76.35 191.633 78.45 172 C 80.617 152.367 81.817 128.667 82.05 100.9 L 82.1 99.6 " stroke-width="1"/>
    <path id="ID0.3655065456405282" fill="url(#grad_2-,0,0,1,70.7,141.95)" stroke="none" d="M 63.15 158.75 L 61.9 109.1 L 61.9 100.55 C 62.133 72.75 63.3 49.033 65.4 29.4 C 67.6 9.733 70.083 -0.067 72.85 0 C 75.583 0.067 77.833 9.933 79.6 29.6 C 81 44.333 81.783 61.367 81.95 80.7 L 82.1 99.6 L 82.05 100.9 C 81.817 128.667 80.617 152.367 78.45 172 C 76.35 191.633 73.933 201.433 71.2 201.4 C 68.433 201.333 66.117 191.45 64.25 171.75 L 63.15 158.75 " stroke-width="1"/>
    <path id="ID0.21090423269197345" fill="url(#grad_3-,0,0,1,70.7,141.95)" stroke="none" d="M 80.55 83.85 C 83.95 85.017 87.65 86.65 91.65 88.75 C 99.95 93.183 108 98.917 115.8 105.95 C 124.267 113.617 131.017 121.617 136.05 129.95 C 141.717 139.317 144.55 148.217 144.55 156.65 C 144.55 162.65 143.2 168.933 140.5 175.5 C 137.533 182.833 133.3 189.4 127.8 195.2 C 121.533 201.867 114.133 207.05 105.6 210.75 C 95.9 214.917 85.067 217 73.1 217 C 61.033 217 50.017 214.75 40.05 210.25 C 36.483 208.617 33.1 206.75 29.9 204.65 C 25.333 201.617 21.133 198.083 17.3 194.05 C 11.7 188.017 7.333 181.367 4.2 174.1 C 1.4 167.633 0 161.817 0 156.65 C 0 149.183 2.617 140.917 7.85 131.85 C 12.583 123.617 18.933 115.567 26.9 107.7 L 29.9 104.8 C 36.567 98.6 43.383 93.467 50.35 89.4 C 58.617 84.533 65.617 82.117 71.35 82.15 C 73.95 82.117 77.017 82.683 80.55 83.85 " stroke-width="1"/>
  </g>
</svg>