<svg version="1.1" width="82.2007064819336" height="89.5999984741211" viewBox="-0.5007108296267688 -0.5 82.2007064819336 89.5999984741211" xmlns="http://www.w3.org/2000/svg" xmlns:xlink="http://www.w3.org/1999/xlink">
  <defs>
    <linearGradient id="grad_1" y2="1" x2="0">
      <stop offset="0" stop-color="#7F7F7F" stop-opacity="1"/>
      <stop offset="1" stop-color="#FFFFFF" stop-opacity="1"/>
    </linearGradient>
    <linearGradient id="grad_2" x1="-819.2" x2="819.2" gradientUnits="userSpaceOnUse">
      <stop offset="0.0" stop-color="#ffffff"/>
      <stop offset="0.13725490196078433" stop-color="#ffffff"/>
      <stop offset="0.47843137254901963" stop-color="#b1b1b1"/>
      <stop offset="0.5725490196078431" stop-color="#dadada"/>
      <stop offset="1.0" stop-color="#222222"/>
    </linearGradient>
    <linearGradient id="grad_3" x1="-819.2" x2="819.2" gradientUnits="userSpaceOnUse">
      <stop offset="0.0" stop-color="#ffffff"/>
      <stop offset="0.13725490196078433" stop-color="#ffffff"/>
      <stop offset="0.47843137254901963" stop-color="#b1b1b1"/>
      <stop offset="0.5725490196078431" stop-color="#dadada"/>
      <stop offset="1.0" stop-color="#222222"/>
    </linearGradient>
  <linearGradient id="grad_1-,0,0,1,39.25,37.75" y2="88.6" x2="-0.0007" x1="-0.0007" y1="8.0495" gradientUnits="userSpaceOnUse">
      <stop offset="0" stop-color="#7F7F7F" stop-opacity="1"/>
      <stop offset="1" stop-color="#FFFFFF" stop-opacity="1"/>
    </linearGradient><linearGradient id="grad_2-,0,0,1,39.25,37.75" x1="-779.95" x2="858.45" gradientUnits="userSpaceOnUse" y1="37.75" y2="37.75">
      <stop offset="0.0" stop-color="#ffffff"/>
      <stop offset="0.13725490196078433" stop-color="#ffffff"/>
      <stop offset="0.47843137254901963" stop-color="#b1b1b1"/>
      <stop offset="0.5725490196078431" stop-color="#dadada"/>
      <stop offset="1.0" stop-color="#222222"/>
    </linearGradient><linearGradient id="grad_3-,0,0,1,39.25,37.75" x1="-779.95" x2="858.45" gradientUnits="userSpaceOnUse" y1="37.75" y2="37.75">
      <stop offset="0.0" stop-color="#ffffff"/>
      <stop offset="0.13725490196078433" stop-color="#ffffff"/>
      <stop offset="0.47843137254901963" stop-color="#b1b1b1"/>
      <stop offset="0.5725490196078431" stop-color="#dadada"/>
      <stop offset="1.0" stop-color="#222222"/>
    </linearGradient></defs>
  <!-- Exported by Scratch - http://scratch.mit.edu/ -->
  <g id="ID0.13187641184777021">
    <path id="ID0.0026730652898550034" fill="url(#grad_1-,0,0,1,39.25,37.75)" stroke="none" d="M 54.05 13.25 C 58.783 16.55 63.233 20.983 67.4 26.55 C 71.567 32.217 74.867 38.25 77.3 44.65 C 79.9 51.483 81.2 57.967 81.2 64.1 C 81.2 71.333 78.283 77.067 72.45 81.3 C 65.75 86.167 55.733 88.6 42.4 88.6 C 29.1 88.6 19.017 86.867 12.15 83.4 C 4.017 79.3 -0.033 72.767 0 63.8 C -0.033 58.267 1.083 52.217 3.35 45.65 C 5.617 39.217 8.633 33.183 12.4 27.55 C 16.3 21.65 20.533 17 25.1 13.6 C 30.1 9.9 35.033 8.05 39.9 8.05 C 44.367 8.017 49.083 9.75 54.05 13.25 " stroke-width="1"/>
    <path id="ID0.6786614125594497" fill="url(#grad_2-,0,0,1,39.25,37.75)" stroke="none" d="M 48.2 21.05 L 48.2 22.2 L 48.2 21.45 L 48.2 21.05 " stroke-width="1"/>
    <path id="ID0.4212078400887549" fill="url(#grad_3-,0,0,1,39.25,37.75)" stroke="none" d="M 45.8 5 C 46.967 7.667 47.6 10.767 47.7 14.3 L 47.7 15.05 L 47.7 16.3 L 47.7 17 C 47.467 21.667 46.483 25.65 44.75 28.95 C 43.117 32.25 41.233 33.9 39.1 33.9 C 36.967 33.9 35.183 32.25 33.75 28.95 C 32.65 26.25 32.067 23.1 32 19.5 L 32 18.15 L 32 17.45 L 32 16.95 C 32.2 12.25 33.133 8.267 34.8 5 C 36.5 1.667 38.433 0 40.6 0 C 42.7 0 44.433 1.667 45.8 5 " stroke-width="1"/>
  </g>
</svg>