<svg version="1.1" width="54.54999923706055" height="74.2540283203125" viewBox="-0.5 -0.5005979537963867 54.54999923706055 74.2540283203125" xmlns="http://www.w3.org/2000/svg" xmlns:xlink="http://www.w3.org/1999/xlink">
  <defs>
    <linearGradient id="grad_1" y2="1" x2="0">
      <stop offset="0" stop-color="#7F7F7F" stop-opacity="1"/>
      <stop offset="1" stop-color="#FFFFFF" stop-opacity="1"/>
    </linearGradient>
    <linearGradient id="grad_2" x1="-819.2" x2="819.2" gradientUnits="userSpaceOnUse">
      <stop offset="0.0" stop-color="#ffffff"/>
      <stop offset="0.13725490196078433" stop-color="#ffffff"/>
      <stop offset="0.47843137254901963" stop-color="#b1b1b1"/>
      <stop offset="0.5725490196078431" stop-color="#dadada"/>
      <stop offset="1.0" stop-color="#222222"/>
    </linearGradient>
    <linearGradient id="grad_3" x1="-819.2" x2="819.2" gradientUnits="userSpaceOnUse">
      <stop offset="0.0" stop-color="#ffffff"/>
      <stop offset="0.13725490196078433" stop-color="#ffffff"/>
      <stop offset="0.47843137254901963" stop-color="#b1b1b1"/>
      <stop offset="0.5725490196078431" stop-color="#dadada"/>
      <stop offset="1.0" stop-color="#222222"/>
    </linearGradient>
  <linearGradient id="grad_1-,0,0,1,25.1,30.05" y2="73.2534" x2="0" x1="0" y1="10.25" gradientUnits="userSpaceOnUse">
      <stop offset="0" stop-color="#7F7F7F" stop-opacity="1"/>
      <stop offset="1" stop-color="#FFFFFF" stop-opacity="1"/>
    </linearGradient><linearGradient id="grad_2-,0,0,1,25.1,30.05" x1="-794.1" x2="844.3" gradientUnits="userSpaceOnUse" y1="30.05" y2="30.05">
      <stop offset="0.0" stop-color="#ffffff"/>
      <stop offset="0.13725490196078433" stop-color="#ffffff"/>
      <stop offset="0.47843137254901963" stop-color="#b1b1b1"/>
      <stop offset="0.5725490196078431" stop-color="#dadada"/>
      <stop offset="1.0" stop-color="#222222"/>
    </linearGradient><linearGradient id="grad_3-,0,0,1,25.1,30.05" x1="-794.1" x2="844.3" gradientUnits="userSpaceOnUse" y1="30.05" y2="30.05">
      <stop offset="0.0" stop-color="#ffffff"/>
      <stop offset="0.13725490196078433" stop-color="#ffffff"/>
      <stop offset="0.47843137254901963" stop-color="#b1b1b1"/>
      <stop offset="0.5725490196078431" stop-color="#dadada"/>
      <stop offset="1.0" stop-color="#222222"/>
    </linearGradient></defs>
  <!-- Exported by Scratch - http://scratch.mit.edu/ -->
  <g id="ID0.9218256124295294">
    <path id="ID0.6056352746672928" fill="url(#grad_1-,0,0,1,25.1,30.05)" stroke="none" d="M 35.55 12.95 C 38.783 14.883 41.717 17.55 44.35 20.95 C 47.15 24.617 49.35 28.867 50.95 33.7 C 52.683 39.067 53.55 44.85 53.55 51.05 C 53.55 53.85 52.967 56.617 51.8 59.35 C 50.6 62.083 48.317 65.05 44.95 68.25 C 41.583 71.45 35.783 73.117 27.55 73.25 C 19.317 73.35 12.667 71.267 7.6 67 C 2.533 62.733 0 57.1 0 50.1 C 0 44.533 0.783 39.233 2.35 34.2 C 3.817 29.5 5.867 25.3 8.5 21.6 C 11 18.033 13.833 15.233 17 13.2 C 20.1 11.233 23.25 10.25 26.45 10.25 C 29.417 10.25 32.45 11.15 35.55 12.95 " stroke-width="1"/>
    <path id="ID0.6710554333403707" fill="url(#grad_2-,0,0,1,25.1,30.05)" stroke="none" d="M 33.95 11.4 L 34.05 10.15 L 34.05 9.5 L 34.05 11.65 L 34 12.15 L 33.95 11.4 M 18.4 15 L 18.35 12.4 L 18.45 14.3 L 18.4 15 " stroke-width="1"/>
    <path id="ID0.6981042339466512" fill="url(#grad_3-,0,0,1,25.1,30.05)" stroke="none" d="M 18.45 14.3 L 18.55 13.25 L 18.6 12.6 C 19.033 9.533 19.9 6.667 21.2 4 C 22.467 1.3 24.117 -0.033 26.15 0 C 28.117 0 29.8 1.167 31.2 3.5 C 32.6 5.8 33.45 7.933 33.75 9.9 L 33.85 10.5 L 33.95 11.4 L 34 12.15 L 34.05 14.95 L 34.05 15.6 C 33.817 19.867 32.833 23.517 31.1 26.55 C 29.467 29.583 27.583 31.1 25.45 31.1 C 23.317 31.1 21.533 29.583 20.1 26.55 C 19 24.05 18.417 21.15 18.35 17.85 L 18.35 15.55 L 18.4 15 L 18.45 14.3 " stroke-width="1"/>
  </g>
</svg>