<?xml version="1.0" encoding="UTF-8" standalone="no"?>
<svg xmlns:xlink="http://www.w3.org/1999/xlink" height="107.5906982421875" width="23.838890075683594" xmlns="http://www.w3.org/2000/svg" viewBox="-0.4888888746500015 -0.522072073072195 23.838890075683594 107.5906982421875">
  <g>
    <path d="M 17.1 4.85 Q 20.1 10 21.4 27.4 Q 22.75 44.8 22.75 53.7 L 22.85 67.3 L 22.4 80.3 Q 21.9 88.55 20.9 95.8 Q 19.8 102.95 16.8 105 Q 13.8 107 11.9 106.45 L 8.15 105.05 Q 6.35 104.15 3.95 98.45 Q 1.5 92.7 0.9 82.75 L 0.15 68.1 Q -0.1 63.45 0.1 51.75 Q 0.3 40 1.7 27.35 Q 3.05 14.65 4.9 7.5 Q 6.7 0.3 10.4 0 Q 14.1 -0.35 17.1 4.85 " fill="url(#gradient0-,0,0,1,10.35,57.65)" fill-rule="evenodd" stroke="none" stroke-width="1"/>
  </g>
  <defs>
    <linearGradient gradientTransform="matrix(0.0, -0.065, 0.0137, 0.0, 1.2, -3.15)" gradientUnits="userSpaceOnUse" id="gradient0" spreadMethod="pad" x1="-819.2" x2="819.2">
      <stop offset="0.0" stop-color="#ffffff"/>
      <stop offset="0.13725490196078433" stop-color="#ffffff"/>
      <stop offset="0.47843137254901963" stop-color="#b1b1b1"/>
      <stop offset="0.5725490196078431" stop-color="#dadada"/>
      <stop offset="1.0" stop-color="#222222"/>
    </linearGradient>
  <linearGradient gradientTransform="matrix(0.0, -0.065, 0.0137, 0.0, 1.2, -3.15)" gradientUnits="userSpaceOnUse" id="gradient0-,0,0,1,10.35,57.65" spreadMethod="pad" x1="-808.85" x2="829.55" y1="57.65" y2="57.65">
      <stop offset="0.0" stop-color="#ffffff"/>
      <stop offset="0.13725490196078433" stop-color="#ffffff"/>
      <stop offset="0.47843137254901963" stop-color="#b1b1b1"/>
      <stop offset="0.5725490196078431" stop-color="#dadada"/>
      <stop offset="1.0" stop-color="#222222"/>
    </linearGradient></defs>
</svg>