<?xml version="1.0" encoding="UTF-8" standalone="no"?>
<svg xmlns:xlink="http://www.w3.org/1999/xlink" height="189.74600219726562" width="22.35102081298828" xmlns="http://www.w3.org/2000/svg" viewBox="-0.5010204315185547 -0.4926713854074478 22.35102081298828 189.74600219726562">
  <g>
    <path d="M 18.7 18.45 Q 20.15 38.15 20.35 50 Q 21.3 60.15 21.35 65.9 Q 21.3 80.45 19.45 93.05 Q 16.9 110.85 11.9 110.85 Q 5.5 110.85 2.35 94.2 Q -0.05 81.9 0 67.5 L 0.55 51.75 Q 1.05 40.9 2.8 21.2 Q 4.55 1.5 10.9 0.1 Q 17.25 -1.3 18.7 18.45 " fill="url(#gradient0-,0,0,1,9.9,118.45)" fill-rule="evenodd" stroke="none" stroke-width="1"/>
    <path d="M 20.7 163.85 Q 20.3 173.8 17.85 181.05 Q 15.45 188.2 12 188.7 Q 8.55 189.1 6.1 186.5 Q 3.55 183.85 2 177.9 Q 0.4 171.95 0.3 163.8 L 0.2 151.3 Q 0.2 141.2 1.95 133.65 Q 4.4 123.2 9.5 123.2 Q 15.65 123.2 18.75 132.75 Q 21.05 139.95 21.05 146.9 L 20.7 163.85 " fill="url(#gradient1-,0,0,1,9.9,118.45)" fill-rule="evenodd" stroke="none" stroke-width="1"/>
  </g>
  <defs>
    <linearGradient gradientTransform="matrix(0.0, -0.114, 0.013, 0.0, 0.7, -22.65)" gradientUnits="userSpaceOnUse" id="gradient0" spreadMethod="pad" x1="-819.2" x2="819.2">
      <stop offset="0.0" stop-color="#ffffff"/>
      <stop offset="0.13725490196078433" stop-color="#ffffff"/>
      <stop offset="0.47843137254901963" stop-color="#b1b1b1"/>
      <stop offset="0.5725490196078431" stop-color="#dadada"/>
      <stop offset="1.0" stop-color="#222222"/>
    </linearGradient>
    <linearGradient gradientTransform="matrix(0.0, -0.1302, 0.0155, 0.0, 1.05, -35.95)" gradientUnits="userSpaceOnUse" id="gradient1" spreadMethod="pad" x1="-819.2" x2="819.2">
      <stop offset="0.0" stop-color="#ffffff"/>
      <stop offset="0.13725490196078433" stop-color="#ffffff"/>
      <stop offset="0.47843137254901963" stop-color="#b1b1b1"/>
      <stop offset="0.5725490196078431" stop-color="#dadada"/>
      <stop offset="1.0" stop-color="#222222"/>
    </linearGradient>
  <linearGradient gradientTransform="matrix(0.0, -0.114, 0.013, 0.0, 0.7, -22.65)" gradientUnits="userSpaceOnUse" id="gradient0-,0,0,1,9.9,118.45" spreadMethod="pad" x1="-809.3" x2="829.1" y1="118.45" y2="118.45">
      <stop offset="0.0" stop-color="#ffffff"/>
      <stop offset="0.13725490196078433" stop-color="#ffffff"/>
      <stop offset="0.47843137254901963" stop-color="#b1b1b1"/>
      <stop offset="0.5725490196078431" stop-color="#dadada"/>
      <stop offset="1.0" stop-color="#222222"/>
    </linearGradient><linearGradient gradientTransform="matrix(0.0, -0.1302, 0.0155, 0.0, 1.05, -35.95)" gradientUnits="userSpaceOnUse" id="gradient1-,0,0,1,9.9,118.45" spreadMethod="pad" x1="-809.3" x2="829.1" y1="118.45" y2="118.45">
      <stop offset="0.0" stop-color="#ffffff"/>
      <stop offset="0.13725490196078433" stop-color="#ffffff"/>
      <stop offset="0.47843137254901963" stop-color="#b1b1b1"/>
      <stop offset="0.5725490196078431" stop-color="#dadada"/>
      <stop offset="1.0" stop-color="#222222"/>
    </linearGradient></defs>
</svg>