<?xml version="1.0" encoding="UTF-8" standalone="no"?>
<svg xmlns:xlink="http://www.w3.org/1999/xlink" height="209.6689910888672" width="23.09694480895996" xmlns="http://www.w3.org/2000/svg" viewBox="-0.5025000006426126 -0.5187499858438969 23.09694480895996 209.6689910888672">
  <g>
    <path d="M 3.85 163.9 Q 5.85 155.7 11.5 155.45 Q 17.15 155.2 18.9 161.25 Q 20.6 167.25 20.8 177.8 Q 20.95 188.4 19.05 198.55 Q 17.15 208.7 12.75 208.65 Q 8.4 208.6 6.55 207.85 Q 4.7 207.05 3.25 201.35 Q 1.7 195.6 2.1 183.05 Q 2.45 170.55 3.85 163.9 " fill="url(#gradient0-,0,0,1,10,137.25)" fill-rule="evenodd" stroke="none" stroke-width="1"/>
    <path d="M 12.75 82.8 Q 3.7 82.8 1.15 70.6 Q 0.2 66.1 0 59.2 L 0 47.7 Q -0.05 31.9 0.9 19.35 Q 2.05 1.15 9.95 0.05 Q 17.85 -1.05 20 15.45 Q 22.15 31.95 22.05 48.3 L 22.05 59.2 Q 22.25 66.2 21.55 70.45 Q 20.15 82.8 12.75 82.8 " fill="url(#gradient1-,0,0,1,10,137.25)" fill-rule="evenodd" stroke="none" stroke-width="1"/>
  </g>
  <defs>
    <linearGradient gradientTransform="matrix(0.0, -0.2187, 0.0137, 0.0, 0.5, -109.7)" gradientUnits="userSpaceOnUse" id="gradient0" spreadMethod="pad" x1="-819.2" x2="819.2">
      <stop offset="0.0" stop-color="#ffffff"/>
      <stop offset="0.13725490196078433" stop-color="#ffffff"/>
      <stop offset="0.47843137254901963" stop-color="#b1b1b1"/>
      <stop offset="0.5725490196078431" stop-color="#dadada"/>
      <stop offset="1.0" stop-color="#222222"/>
    </linearGradient>
    <linearGradient gradientTransform="matrix(0.0, -0.1399, 0.0136, 0.0, 1.05, -21.5)" gradientUnits="userSpaceOnUse" id="gradient1" spreadMethod="pad" x1="-819.2" x2="819.2">
      <stop offset="0.0" stop-color="#ffffff"/>
      <stop offset="0.13725490196078433" stop-color="#ffffff"/>
      <stop offset="0.47843137254901963" stop-color="#b1b1b1"/>
      <stop offset="0.5725490196078431" stop-color="#dadada"/>
      <stop offset="1.0" stop-color="#222222"/>
    </linearGradient>
  <linearGradient gradientTransform="matrix(0.0, -0.2187, 0.0137, 0.0, 0.5, -109.7)" gradientUnits="userSpaceOnUse" id="gradient0-,0,0,1,10,137.25" spreadMethod="pad" x1="-809.2" x2="829.2" y1="137.25" y2="137.25">
      <stop offset="0.0" stop-color="#ffffff"/>
      <stop offset="0.13725490196078433" stop-color="#ffffff"/>
      <stop offset="0.47843137254901963" stop-color="#b1b1b1"/>
      <stop offset="0.5725490196078431" stop-color="#dadada"/>
      <stop offset="1.0" stop-color="#222222"/>
    </linearGradient><linearGradient gradientTransform="matrix(0.0, -0.1399, 0.0136, 0.0, 1.05, -21.5)" gradientUnits="userSpaceOnUse" id="gradient1-,0,0,1,10,137.25" spreadMethod="pad" x1="-809.2" x2="829.2" y1="137.25" y2="137.25">
      <stop offset="0.0" stop-color="#ffffff"/>
      <stop offset="0.13725490196078433" stop-color="#ffffff"/>
      <stop offset="0.47843137254901963" stop-color="#b1b1b1"/>
      <stop offset="0.5725490196078431" stop-color="#dadada"/>
      <stop offset="1.0" stop-color="#222222"/>
    </linearGradient></defs>
</svg>